<svg xmlns="http://www.w3.org/2000/svg" viewBox="0 0 256 256" role="img" aria-labelledby="title desc">
  <title id="title">Tartaruga BOKS</title>
  <desc id="desc">Icona quadrata con una tartaruga verde sorridente.</desc>
  <defs>
    <linearGradient id="bg" x1="0" y1="0" x2="1" y2="1">
      <stop offset="0%" stop-color="#d8f7b8"/>
      <stop offset="100%" stop-color="#9bdc6f"/>
    </linearGradient>
    <linearGradient id="shell" x1="0" y1="0" x2="1" y2="1">
      <stop offset="0%" stop-color="#8fd66b"/>
      <stop offset="100%" stop-color="#58a44a"/>
    </linearGradient>
    <linearGradient id="skin" x1="0" y1="0" x2="1" y2="1">
      <stop offset="0%" stop-color="#b8ef8b"/>
      <stop offset="100%" stop-color="#78cb62"/>
    </linearGradient>
  </defs>
  <rect x="4" y="4" width="248" height="248" rx="36" fill="url(#bg)" stroke="#7fba55" stroke-width="8"/>
  <ellipse cx="130" cy="136" rx="72" ry="58" fill="url(#shell)" stroke="#4f8f3f" stroke-width="10"/>
  <path d="M102 103c13-12 39-17 57-9 11 4 20 13 26 24-18-9-34-14-53-12-13 1-25 6-38 14 1-6 4-12 8-17Z" fill="#d7f8c0" opacity=".55"/>
  <circle cx="196" cy="136" r="24" fill="url(#skin)" stroke="#4f8f3f" stroke-width="8"/>
  <circle cx="203" cy="131" r="4.5" fill="#243b1f"/>
  <circle cx="89" cy="94" r="15" fill="url(#skin)" stroke="#4f8f3f" stroke-width="8"/>
  <circle cx="76" cy="129" r="15" fill="url(#skin)" stroke="#4f8f3f" stroke-width="8"/>
  <circle cx="92" cy="184" r="15" fill="url(#skin)" stroke="#4f8f3f" stroke-width="8"/>
  <circle cx="167" cy="191" r="15" fill="url(#skin)" stroke="#4f8f3f" stroke-width="8"/>
  <path d="M53 137l-16 10 14 7" fill="none" stroke="#4f8f3f" stroke-width="8" stroke-linecap="round" stroke-linejoin="round"/>
  <circle cx="188" cy="129" r="4.5" fill="#243b1f"/>
  <path d="M190 145c-5 6-13 8-21 5" fill="none" stroke="#243b1f" stroke-width="5" stroke-linecap="round"/>
  <g fill="#6fbb58" opacity=".95">
    <circle cx="110" cy="115" r="10"/>
    <circle cx="145" cy="109" r="10"/>
    <circle cx="160" cy="140" r="10"/>
    <circle cx="127" cy="151" r="10"/>
    <circle cx="101" cy="143" r="10"/>
    <circle cx="142" cy="170" r="10"/>
  </g>
  <path d="M30 54c21-22 54-30 81-25" fill="none" stroke="#efffdc" stroke-width="14" stroke-linecap="round" opacity=".6"/>
</svg>
