<svg xmlns="http://www.w3.org/2000/svg" viewBox="18 -6 285 130" role="img" aria-label="BOKS">
  <defs>
    <filter id="soft-shadow" x="-8%" y="-12%" width="116%" height="130%">
      <feDropShadow dx="0" dy="5" stdDeviation="2.3" flood-color="#5f4e34" flood-opacity="0.16"/>
    </filter>
  </defs>
  <g filter="url(#soft-shadow)">
    <path fill="#3F9A62" d="M83.49 47.65 C83.49 55.84 79.95 62.05 72.87 66.3 C76.72 67.71 79.95 70.15 82.54 73.61 C85.14 77.08 86.44 81.97 86.44 88.31 C86.44 94.64 84.1 99.65 79.41 103.35 C74.73 107.05 68.03 108.9 59.3 108.9 L31.45 108.9 C30.11 108.9 29.01 108.44 28.14 107.54 C27.28 106.63 26.85 105.44 26.85 103.94 L26.85 28.42 C26.85 27.56 26.98 26.98 27.26 26.71 C27.53 26.43 28.1 26.3 28.97 26.3 L55.87 26.3 C74.28 26.3 83.49 33.42 83.49 47.65 Z M49.5 45.41 L49.5 60.87 L50.09 60.87 C57.64 60.87 61.42 58.35 61.42 53.32 C61.42 50.57 60.69 48.56 59.24 47.3 C57.78 46.04 55.36 45.41 51.98 45.41 Z M49.5 74.79 L49.5 90.13 L51.63 90.13 C55.01 90.13 57.49 89.51 59.06 88.25 C60.63 86.99 61.42 84.98 61.42 82.23 C61.42 79.48 60.69 77.55 59.24 76.45 C57.78 75.35 55.36 74.79 51.98 74.79 Z"/>
    <path fill="#FF3B3B" d="M119.87 20.16 C119.87 20.63 117.14 20.87 111.67 20.87 C106.21 20.87 103.47 20.67 103.47 20.28 L103.47 3.76 C103.47 3.05 106.21 2.7 111.67 2.7 C117.14 2.7 119.87 2.89 119.87 3.29 Z M147.01 20.16 C147.01 20.63 144.28 20.87 138.81 20.87 C133.35 20.87 130.61 20.67 130.61 20.28 L130.61 3.76 C130.61 3.05 133.35 2.7 138.81 2.7 C144.28 2.7 147.01 2.89 147.01 3.29 Z M125.24 110.08 C114.19 110.08 105.18 106.46 98.22 99.22 C91.26 91.98 87.78 81.42 87.78 67.54 C87.78 53.65 91.3 43.13 98.34 35.97 C105.38 28.81 114.47 25.23 125.6 25.23 C136.73 25.23 145.72 28.75 152.56 35.8 C159.4 42.84 162.83 53.5 162.83 67.77 C162.83 82.05 159.32 92.67 152.32 99.63 C145.32 106.6 136.3 110.08 125.24 110.08 Z M125.3 47.89 C121.53 47.89 118.36 49.62 115.8 53.08 C113.25 56.54 111.97 61.4 111.97 67.66 C111.97 73.91 113.19 78.71 115.63 82.05 C118.06 85.39 121.27 87.07 125.24 87.07 C129.22 87.07 132.44 85.38 134.92 81.99 C137.4 78.61 138.64 73.77 138.64 67.48 C138.64 61.19 137.36 56.35 134.8 52.96 C132.24 49.58 129.08 47.89 125.3 47.89 Z"/>
    <path fill="#FFD31A" d="M193.79 107.24 C193.79 108.42 190.09 109.01 182.69 109.01 L176.09 108.66 C172.15 108.35 170.19 107.8 170.19 107.01 L170.19 27.83 C170.19 26.49 174.12 25.82 181.99 25.82 C189.85 25.82 193.79 26.49 193.79 27.83 L193.79 58.04 L208.18 27.83 C208.73 26.73 211.88 26.18 217.62 26.18 C228.08 26.18 233.59 27.08 234.14 28.89 C234.14 29.05 234.1 29.21 234.02 29.36 L213.49 66.42 L237.33 99.34 C237.33 99.5 236.58 100.16 235.09 101.34 C231.47 104.49 227.22 106.97 222.34 108.78 C220.85 109.33 219.35 109.6 217.86 109.6 L215.03 109.37 C212.51 108.74 210.54 107.13 209.13 104.53 L195.67 78.81 L193.79 78.81 Z"/>
    <path fill="#2B8FD4" d="M245.4 80.1 C246.89 81.28 249.47 82.9 253.12 84.94 C256.78 86.99 260.28 88.01 263.63 88.01 C266.97 88.01 268.64 86.71 268.64 84.12 C268.64 82.94 268.17 81.89 267.23 80.99 C266.28 80.08 264.55 79.04 262.03 77.86 C259.52 76.68 257.63 75.76 256.37 75.09 C255.11 74.42 253.44 73.32 251.35 71.79 C249.27 70.25 247.68 68.66 246.58 67.01 C243.43 62.52 241.86 56.82 241.86 49.9 C241.86 42.97 244.43 37.13 249.58 32.37 C254.74 27.61 261.48 25.23 269.82 25.23 C275.49 25.23 280.72 25.84 285.52 27.06 C290.31 28.28 292.79 29.88 292.95 31.84 C292.95 32.08 292.95 32.31 292.95 32.55 C292.95 35.3 292.08 38.78 290.35 42.99 C288.62 47.2 287.4 49.54 286.7 50.01 C281.66 47.42 277.16 46.12 273.18 46.12 C269.21 46.12 267.23 47.54 267.23 50.37 C267.23 52.1 268.68 53.63 271.59 54.97 C272.22 55.29 273.13 55.72 274.31 56.27 C275.49 56.82 276.84 57.47 278.38 58.22 C279.91 58.96 281.56 59.91 283.33 61.05 C285.1 62.19 287.01 63.7 289.06 65.59 C293.22 69.52 295.31 74.72 295.31 81.17 C295.31 89.58 292.99 96.47 288.35 101.82 C283.71 107.17 276.55 109.92 266.87 110.08 C262.15 110.08 257.88 109.68 254.07 108.9 C250.25 108.11 246.93 106.58 244.1 104.29 C241.27 102.01 239.85 99.26 239.85 96.03 C239.85 92.81 240.44 89.6 241.62 86.42 C242.8 83.23 244.06 81.13 245.4 80.1 Z"/>
  </g>
</svg>